<svg xmlns="http://www.w3.org/2000/svg" xmlns:xlink="http://www.w3.org/1999/xlink" width="640" height="640" preserveAspectRatio="xMidYMid meet" version="1.1" viewBox="0 0 640 640"><defs><path id="d2mp8Swwqr" d="M640 640L640 640L640 641.54L640 641.54L640 640Z"/><path id="b1JJhIoCQq" d="M0 0L0 0L0 1.54L0 1.54L0 0Z"/><path id="m4pEdXDoW" d="M125.85 276.15L434.42 103.85L115.22 126.52L125.85 276.15Z"/><path id="cSvitjVv" d="M354.89 325.19L477.75 130.5L163.53 292.26L354.89 325.19Z"/><path id="etBKZjEqy" d="M284.17 533.38L95.83 508.34L119.51 340L284.17 533.38Z"/><path id="c8CXYEvnlO" d="M525 478.56L395 350L525 160L525 478.56Z"/><path id="j1fSb6fYNk" d="M353.68 516.27L483.32 525.89L363.2 388.06L176.68 334.11L353.68 516.27Z"/><path id="c1YYJqix0j" d="M640 640L640 640L640 641.54L640 641.54L640 640Z"/><path id="lSqz2vjk3" d="M0 0L0 0L0 1.54L0 1.54L0 0Z"/><path id="b9phItGf0" d="M0 0L0 0L0 1.54L0 1.54L0 0Z"/></defs><g><g><g><use fill="#3f1e48" fill-opacity="1" opacity="1" xlink:href="#d2mp8Swwqr"/></g><g><use fill="#3f1e48" fill-opacity="1" opacity="1" xlink:href="#b1JJhIoCQq"/></g><g><use fill="#000" fill-opacity="1" opacity="1" xlink:href="#m4pEdXDoW"/></g><g><use fill="#000" fill-opacity="1" opacity="1" xlink:href="#cSvitjVv"/></g><g><use fill="#000" fill-opacity="1" opacity="1" xlink:href="#etBKZjEqy"/></g><g><use fill="#000" fill-opacity="1" opacity="1" xlink:href="#c8CXYEvnlO"/></g><g><use fill="#000" fill-opacity="1" opacity="1" xlink:href="#j1fSb6fYNk"/></g><g><use fill="#3f1e48" fill-opacity="1" opacity="1" xlink:href="#c1YYJqix0j"/></g><g><use fill="#3f1e48" fill-opacity="1" opacity="1" xlink:href="#lSqz2vjk3"/></g><g><use fill="#3f1e48" fill-opacity="1" opacity="1" xlink:href="#b9phItGf0"/></g></g></g></svg>