<svg xmlns="http://www.w3.org/2000/svg" xmlns:xlink="http://www.w3.org/1999/xlink" width="640" height="640" preserveAspectRatio="xMidYMid meet" version="1.1" viewBox="0 0 640 640"><defs><path id="baiCk8nNs" d="M33.51 300C34.23 300 34.82 300.59 34.82 301.31C34.82 309.05 34.82 330.95 34.82 338.69C34.82 339.41 34.23 340 33.51 340C26.81 340 8.02 340 1.31 340C0.59 340 0 339.41 0 338.69C0 330.95 0 309.05 0 301.31C0 300.59 0.59 300 1.31 300C8.02 300 26.81 300 33.51 300Z"/><path id="f2soo2jO2L" d="M620 510C395.36 203.79 459.81 164.18 420 163.36C380.19 162.54 411.04 278.61 210 315.8C186.16 321.86 52.57 320.31 22.84 319.98"/><path id="e4nRpdm9Sc" d="M636.84 500C637.95 501.54 637.61 503.7 636.06 504.81C630.14 509.1 615.17 519.93 609.24 524.22C607.7 525.33 605.55 524.99 604.43 523.44C598.97 515.9 584.62 496.07 579.16 488.52C578.05 486.98 578.39 484.82 579.94 483.71C585.86 479.42 600.83 468.59 606.76 464.3C608.3 463.19 610.45 463.53 611.57 465.08C617.03 472.62 631.38 492.45 636.84 500Z"/></defs><g><g><g><use fill="#000" fill-opacity="1" opacity="1" xlink:href="#baiCk8nNs"/></g><g><g><use fill-opacity="0" stroke="#000" stroke-opacity="1" stroke-width="40" opacity="1" xlink:href="#f2soo2jO2L"/></g></g><g><use fill="#000" fill-opacity="1" opacity="1" xlink:href="#e4nRpdm9Sc"/></g></g></g></svg>