<svg xmlns="http://www.w3.org/2000/svg" xmlns:xlink="http://www.w3.org/1999/xlink" width="1701" height="1701" preserveAspectRatio="xMidYMid meet" version="1.1" viewBox="0 0 1701 1701"><defs><path id="k39Dh1wFs7" d="M155.32 448.98C155.31 449 820.1 1487.79 850.36 1653.31C850.39 1653.31 850.61 1653.31 850.64 1653.31C855.63 1625.99 1438.76 540.21 1545.82 449.22C1545.81 449.2 1545.76 449.12 1545.68 448.98C688.51 449.26 225.06 449.26 155.32 448.98Z"/></defs><g><g><g><g><filter id="shadow13560384" width="1409.5" height="1223.33" x="146.32" y="439.98" filterUnits="userSpaceOnUse" primitiveUnits="userSpaceOnUse"><feFlood/><feComposite in2="SourceAlpha" operator="in"/><feGaussianBlur stdDeviation="1"/><feOffset dx="1" dy="1" result="afterOffset"/><feFlood flood-color="#000" flood-opacity=".5"/><feComposite in2="afterOffset" operator="in"/><feMorphology operator="dilate" radius="1"/><feComposite in2="SourceAlpha" operator="out"/></filter><path id="b2btxBmqDq" fill="#fff" fill-opacity="1" d="M155.32 448.98C155.31 449 820.1 1487.79 850.36 1653.31C850.39 1653.31 850.61 1653.31 850.64 1653.31C855.63 1625.99 1438.76 540.21 1545.82 449.22C1545.81 449.2 1545.76 449.12 1545.68 448.98C688.51 449.26 225.06 449.26 155.32 448.98Z" filter="url(#shadow13560384)"/></g><use fill="#000" fill-opacity="1" opacity="1" xlink:href="#k39Dh1wFs7"/><g><use fill-opacity="0" stroke="#000" stroke-opacity="0" stroke-width="1" opacity="1" xlink:href="#k39Dh1wFs7"/></g><g><filter id="shadow3195237" width="1409.5" height="1223.33" x="146.32" y="439.98" filterUnits="userSpaceOnUse" primitiveUnits="userSpaceOnUse"><feFlood/><feComposite in2="SourceAlpha" operator="out"/><feGaussianBlur stdDeviation="1"/><feOffset dx="1" dy="1" result="afterOffset"/><feFlood flood-color="#000" flood-opacity=".5"/><feComposite in2="afterOffset" operator="in"/><feMorphology operator="dilate" radius="1"/><feComposite in2="SourceAlpha" operator="in"/></filter><path id="d6oHbGRIwo" fill="#fff" fill-opacity="1" d="M155.32 448.98C155.31 449 820.1 1487.79 850.36 1653.31C850.39 1653.31 850.61 1653.31 850.64 1653.31C855.63 1625.99 1438.76 540.21 1545.82 449.22C1545.81 449.2 1545.76 449.12 1545.68 448.98C688.51 449.26 225.06 449.26 155.32 448.98Z" filter="url(#shadow3195237)"/></g></g></g></g></svg>